<svg width="46" height="48" viewBox="0 0 46 48" fill="none" xmlns="http://www.w3.org/2000/svg">
<rect width="46" height="48" rx="8" fill="#F9F9F9"/>
<mask id="path-2-inside-1_1_4084" fill="white">
<path d="M32.2097 30.4C31.7044 29.2031 30.9711 28.116 30.0508 27.1991C29.1332 26.2796 28.0462 25.5464 26.8499 25.0402C26.8391 25.0348 26.8284 25.0321 26.8177 25.0268C28.4865 23.8214 29.5713 21.858 29.5713 19.6429C29.5713 15.9732 26.5981 13 22.9284 13C19.2588 13 16.2856 15.9732 16.2856 19.6429C16.2856 21.858 17.3704 23.8214 19.0391 25.0295C19.0284 25.0348 19.0177 25.0375 19.007 25.0429C17.807 25.5491 16.7302 26.275 15.8061 27.2018C14.8866 28.1194 14.1534 29.2064 13.6472 30.4027C13.1498 31.5739 12.8816 32.8296 12.857 34.1018C12.8563 34.1304 12.8613 34.1588 12.8717 34.1854C12.8822 34.2121 12.8979 34.2363 12.9178 34.2568C12.9378 34.2773 12.9617 34.2935 12.988 34.3046C13.0144 34.3157 13.0427 34.3214 13.0713 34.3214H14.6784C14.7963 34.3214 14.89 34.2277 14.8927 34.1125C14.9463 32.0446 15.7766 30.108 17.2445 28.6402C18.7633 27.1214 20.7802 26.2857 22.9284 26.2857C25.0766 26.2857 27.0936 27.1214 28.6124 28.6402C30.0802 30.108 30.9106 32.0446 30.9641 34.1125C30.9668 34.2304 31.0606 34.3214 31.1784 34.3214H32.7856C32.8142 34.3214 32.8425 34.3157 32.8688 34.3046C32.8952 34.2935 32.9191 34.2773 32.939 34.2568C32.959 34.2363 32.9747 34.2121 32.9851 34.1854C32.9956 34.1588 33.0006 34.1304 32.9999 34.1018C32.9731 32.8214 32.7079 31.5759 32.2097 30.4ZM22.9284 24.25C21.699 24.25 20.5418 23.7705 19.6713 22.9C18.8008 22.0295 18.3213 20.8723 18.3213 19.6429C18.3213 18.4134 18.8008 17.2563 19.6713 16.3857C20.5418 15.5152 21.699 15.0357 22.9284 15.0357C24.1579 15.0357 25.315 15.5152 26.1856 16.3857C27.0561 17.2563 27.5356 18.4134 27.5356 19.6429C27.5356 20.8723 27.0561 22.0295 26.1856 22.9C25.315 23.7705 24.1579 24.25 22.9284 24.25Z"/>
</mask>
<path d="M32.2097 30.4C31.7044 29.2031 30.9711 28.116 30.0508 27.1991C29.1332 26.2796 28.0462 25.5464 26.8499 25.0402C26.8391 25.0348 26.8284 25.0321 26.8177 25.0268C28.4865 23.8214 29.5713 21.858 29.5713 19.6429C29.5713 15.9732 26.5981 13 22.9284 13C19.2588 13 16.2856 15.9732 16.2856 19.6429C16.2856 21.858 17.3704 23.8214 19.0391 25.0295C19.0284 25.0348 19.0177 25.0375 19.007 25.0429C17.807 25.5491 16.7302 26.275 15.8061 27.2018C14.8866 28.1194 14.1534 29.2064 13.6472 30.4027C13.1498 31.5739 12.8816 32.8296 12.857 34.1018C12.8563 34.1304 12.8613 34.1588 12.8717 34.1854C12.8822 34.2121 12.8979 34.2363 12.9178 34.2568C12.9378 34.2773 12.9617 34.2935 12.988 34.3046C13.0144 34.3157 13.0427 34.3214 13.0713 34.3214H14.6784C14.7963 34.3214 14.89 34.2277 14.8927 34.1125C14.9463 32.0446 15.7766 30.108 17.2445 28.6402C18.7633 27.1214 20.7802 26.2857 22.9284 26.2857C25.0766 26.2857 27.0936 27.1214 28.6124 28.6402C30.0802 30.108 30.9106 32.0446 30.9641 34.1125C30.9668 34.2304 31.0606 34.3214 31.1784 34.3214H32.7856C32.8142 34.3214 32.8425 34.3157 32.8688 34.3046C32.8952 34.2935 32.9191 34.2773 32.939 34.2568C32.959 34.2363 32.9747 34.2121 32.9851 34.1854C32.9956 34.1588 33.0006 34.1304 32.9999 34.1018C32.9731 32.8214 32.7079 31.5759 32.2097 30.4ZM22.9284 24.25C21.699 24.25 20.5418 23.7705 19.6713 22.9C18.8008 22.0295 18.3213 20.8723 18.3213 19.6429C18.3213 18.4134 18.8008 17.2563 19.6713 16.3857C20.5418 15.5152 21.699 15.0357 22.9284 15.0357C24.1579 15.0357 25.315 15.5152 26.1856 16.3857C27.0561 17.2563 27.5356 18.4134 27.5356 19.6429C27.5356 20.8723 27.0561 22.0295 26.1856 22.9C25.315 23.7705 24.1579 24.25 22.9284 24.25Z" fill="black" fill-opacity="0.25"/>
<path d="M30.0508 27.1991L29.3429 27.9055L29.345 27.9076L30.0508 27.1991ZM26.8499 25.0402L26.4026 25.9346L26.431 25.9488L26.4601 25.9611L26.8499 25.0402ZM26.8177 25.0268L26.2322 24.2161L24.8938 25.1829L26.3705 25.9212L26.8177 25.0268ZM19.0391 25.0295L19.4864 25.9239L20.9613 25.1864L19.6255 24.2194L19.0391 25.0295ZM19.007 25.0429L19.3957 25.9642L19.4254 25.9517L19.4542 25.9373L19.007 25.0429ZM15.8061 27.2018L16.5125 27.9096L16.5142 27.9079L15.8061 27.2018ZM13.6472 30.4027L14.5676 30.7935L14.5681 30.7924L13.6472 30.4027ZM12.857 34.1018L13.8567 34.1268L13.8568 34.1211L12.857 34.1018ZM13.0713 34.3214V33.3214H13.071L13.0713 34.3214ZM14.8927 34.1125L13.893 34.0866L13.893 34.0893L14.8927 34.1125ZM30.9641 34.1125L31.9639 34.0898L31.9638 34.0866L30.9641 34.1125ZM32.7856 34.3214L32.7859 33.3214H32.7856V34.3214ZM32.9999 34.1018L32.0001 34.1227L32.0002 34.1268L32.9999 34.1018ZM32.2097 30.4L31.2884 30.7889L31.2889 30.7901L32.2097 30.4ZM33.1309 30.0111C32.5752 28.6947 31.7688 27.4991 30.7565 26.4907L29.345 27.9076C30.1735 28.7329 30.8336 29.7115 31.2884 30.7889L33.1309 30.0111ZM30.7586 26.4927C29.7498 25.4818 28.5548 24.6758 27.2396 24.1192L26.4601 25.9611C27.5376 26.4171 28.5165 27.0773 29.3429 27.9055L30.7586 26.4927ZM27.2971 24.1458C27.2648 24.1296 27.2372 24.1178 27.2182 24.1101C27.2087 24.1063 27.2007 24.1032 27.1953 24.1011C27.1903 24.0992 27.1857 24.0975 27.1849 24.0972C27.183 24.0965 27.1849 24.0971 27.1873 24.0981C27.19 24.0991 27.1953 24.1012 27.2021 24.1039C27.2157 24.1094 27.238 24.1189 27.2649 24.1324L26.3705 25.9212C26.4028 25.9374 26.4304 25.9491 26.4494 25.9569C26.4589 25.9607 26.4668 25.9638 26.4723 25.9659C26.4773 25.9678 26.4819 25.9695 26.4827 25.9698C26.4845 25.9705 26.4827 25.9698 26.4803 25.9689C26.4775 25.9679 26.4722 25.9658 26.4654 25.963C26.4518 25.9575 26.4296 25.9481 26.4026 25.9346L27.2971 24.1458ZM27.4033 25.8374C29.3215 24.4518 30.5713 22.1922 30.5713 19.6429H28.5713C28.5713 21.5239 27.6514 23.191 26.2322 24.2161L27.4033 25.8374ZM30.5713 19.6429C30.5713 15.4209 27.1504 12 22.9284 12V14C26.0458 14 28.5713 16.5255 28.5713 19.6429H30.5713ZM22.9284 12C18.7065 12 15.2856 15.4209 15.2856 19.6429H17.2856C17.2856 16.5255 19.8111 14 22.9284 14V12ZM15.2856 19.6429C15.2856 22.1924 16.5354 24.4515 18.4528 25.8395L19.6255 24.2194C18.2053 23.1913 17.2856 21.5237 17.2856 19.6429H15.2856ZM18.5919 24.135C18.6189 24.1216 18.6411 24.1121 18.6547 24.1066C18.6615 24.1038 18.6668 24.1018 18.6696 24.1007C18.672 24.0998 18.6738 24.0991 18.6719 24.0998C18.6711 24.1001 18.6666 24.1018 18.6615 24.1038C18.6561 24.1059 18.6481 24.1089 18.6387 24.1128C18.6197 24.1205 18.5921 24.1323 18.5598 24.1484L19.4542 25.9373C19.4273 25.9508 19.405 25.9602 19.3914 25.9657C19.3846 25.9685 19.3793 25.9705 19.3766 25.9716C19.3742 25.9725 19.3723 25.9732 19.3742 25.9725C19.375 25.9722 19.3795 25.9705 19.3846 25.9686C19.39 25.9665 19.398 25.9634 19.4075 25.9595C19.4265 25.9518 19.4541 25.94 19.4864 25.9239L18.5919 24.135ZM18.6183 24.1215C17.2985 24.6783 16.1133 25.4774 15.098 26.4957L16.5142 27.9079C17.3471 27.0726 18.3155 26.4199 19.3957 25.9642L18.6183 24.1215ZM15.0997 26.4939C14.0888 27.5027 13.2828 28.6977 12.7262 30.013L14.5681 30.7924C15.0241 29.715 15.6843 28.736 16.5125 27.9096L15.0997 26.4939ZM12.7267 30.0118C12.1794 31.3007 11.8843 32.6825 11.8572 34.0825L13.8568 34.1211C13.8789 32.9767 14.1202 31.8471 14.5676 30.7935L12.7267 30.0118ZM11.8573 34.0768C11.8533 34.2388 11.8817 34.4 11.9409 34.5508L13.8026 33.8201C13.8409 33.9177 13.8593 34.022 13.8567 34.1268L11.8573 34.0768ZM11.9409 34.5508C12.0001 34.7016 12.0889 34.8391 12.2021 34.9551L13.6336 33.5585C13.7068 33.6335 13.7643 33.7225 13.8026 33.8201L11.9409 34.5508ZM12.2021 34.9551C12.3152 35.0711 12.4505 35.1633 12.5998 35.2262L13.3763 33.3831C13.4729 33.4238 13.5604 33.4834 13.6336 33.5585L12.2021 34.9551ZM12.5998 35.2262C12.7491 35.2891 12.9096 35.3215 13.0716 35.3214L13.071 33.3214C13.1758 33.3214 13.2796 33.3424 13.3763 33.3831L12.5998 35.2262ZM13.0713 35.3214H14.6784V33.3214H13.0713V35.3214ZM14.6784 35.3214C15.3448 35.3214 15.8773 34.7887 15.8924 34.1358L13.893 34.0893C13.9028 33.6667 14.2477 33.3214 14.6784 33.3214V35.3214ZM15.8924 34.1384C15.9393 32.3267 16.6649 30.634 17.9516 29.3473L16.5374 27.9331C14.8884 29.5821 13.9533 31.7625 13.8931 34.0866L15.8924 34.1384ZM17.9516 29.3473C19.2829 28.016 21.0455 27.2857 22.9284 27.2857V25.2857C20.5149 25.2857 18.2436 26.2268 16.5374 27.9331L17.9516 29.3473ZM22.9284 27.2857C24.8114 27.2857 26.574 28.016 27.9053 29.3473L29.3195 27.9331C27.6132 26.2268 25.3419 25.2857 22.9284 25.2857V27.2857ZM27.9053 29.3473C29.1919 30.634 29.9175 32.3267 29.9645 34.1384L31.9638 34.0866C31.9036 31.7625 30.9685 29.5821 29.3195 27.9331L27.9053 29.3473ZM29.9644 34.1352C29.9795 34.7998 30.5206 35.3214 31.1784 35.3214V33.3214C31.6005 33.3214 31.9541 33.6609 31.9639 34.0898L29.9644 34.1352ZM31.1784 35.3214H32.7856V33.3214H31.1784V35.3214ZM32.7853 35.3214C32.9473 35.3215 33.1077 35.2891 33.2571 35.2262L32.4806 33.3831C32.5772 33.3424 32.681 33.3214 32.7859 33.3214L32.7853 35.3214ZM33.2571 35.2262C33.4064 35.1633 33.5416 35.0711 33.6548 34.9551L32.2232 33.5585C32.2965 33.4834 32.384 33.4238 32.4806 33.3831L33.2571 35.2262ZM33.6548 34.9551C33.768 34.8391 33.8568 34.7016 33.916 34.5508L32.0542 33.8201C32.0926 33.7225 32.15 33.6335 32.2232 33.5585L33.6548 34.9551ZM33.916 34.5508C33.9752 34.4 34.0036 34.2388 33.9995 34.0768L32.0002 34.1268C31.9975 34.022 32.0159 33.9177 32.0542 33.8201L33.916 34.5508ZM33.9996 34.0809C33.9702 32.6745 33.6786 31.3035 33.1304 30.0099L31.2889 30.7901C31.7372 31.8482 31.9759 32.9684 32.0001 34.1227L33.9996 34.0809ZM22.9284 23.25C21.9645 23.25 21.0616 22.8761 20.3784 22.1929L18.9642 23.6071C20.0221 24.665 21.4335 25.25 22.9284 25.25V23.25ZM20.3784 22.1929C19.6952 21.5097 19.3213 20.6068 19.3213 19.6429H17.3213C17.3213 21.1378 17.9063 22.5492 18.9642 23.6071L20.3784 22.1929ZM19.3213 19.6429C19.3213 18.6789 19.6952 17.776 20.3784 17.0928L18.9642 15.6786C17.9063 16.7365 17.3213 18.1479 17.3213 19.6429H19.3213ZM20.3784 17.0928C21.0616 16.4096 21.9645 16.0357 22.9284 16.0357V14.0357C21.4335 14.0357 20.0221 14.6207 18.9642 15.6786L20.3784 17.0928ZM22.9284 16.0357C23.8924 16.0357 24.7953 16.4096 25.4785 17.0928L26.8927 15.6786C25.8348 14.6207 24.4234 14.0357 22.9284 14.0357V16.0357ZM25.4785 17.0928C26.1617 17.776 26.5356 18.6789 26.5356 19.6429H28.5356C28.5356 18.1479 27.9506 16.7365 26.8927 15.6786L25.4785 17.0928ZM26.5356 19.6429C26.5356 20.6068 26.1617 21.5097 25.4785 22.1929L26.8927 23.6071C27.9506 22.5492 28.5356 21.1378 28.5356 19.6429H26.5356ZM25.4785 22.1929C24.7953 22.8761 23.8924 23.25 22.9284 23.25V25.25C24.4234 25.25 25.8348 24.665 26.8927 23.6071L25.4785 22.1929Z" fill="black" mask="url(#path-2-inside-1_1_4084)"/>
</svg>
