<svg width="46" height="48" viewBox="0 0 46 48" fill="none" xmlns="http://www.w3.org/2000/svg">
<rect width="46" height="48" rx="8" fill="#F9F9F9"/>
<mask id="path-2-inside-1_1_3991" fill="white">
<path d="M32.3527 30.4C31.8475 29.2031 31.1142 28.116 30.1938 27.1991C29.2762 26.2796 28.1893 25.5464 26.9929 25.0402C26.9822 25.0348 26.9715 25.0321 26.9608 25.0268C28.6295 23.8214 29.7144 21.858 29.7144 19.6429C29.7144 15.9732 26.7411 13 23.0715 13C19.4019 13 16.4286 15.9732 16.4286 19.6429C16.4286 21.858 17.5135 23.8214 19.1822 25.0295C19.1715 25.0348 19.1608 25.0375 19.1501 25.0429C17.9501 25.5491 16.8733 26.275 15.9492 27.2018C15.0296 28.1194 14.2965 29.2064 13.7902 30.4027C13.2929 31.5739 13.0247 32.8296 13.0001 34.1018C12.9994 34.1304 13.0044 34.1588 13.0148 34.1854C13.0253 34.2121 13.0409 34.2363 13.0609 34.2568C13.0809 34.2773 13.1047 34.2935 13.1311 34.3046C13.1574 34.3157 13.1858 34.3214 13.2144 34.3214H14.8215C14.9394 34.3214 15.0331 34.2277 15.0358 34.1125C15.0894 32.0446 15.9197 30.108 17.3876 28.6402C18.9063 27.1214 20.9233 26.2857 23.0715 26.2857C25.2197 26.2857 27.2367 27.1214 28.7554 28.6402C30.2233 30.108 31.0536 32.0446 31.1072 34.1125C31.1099 34.2304 31.2036 34.3214 31.3215 34.3214H32.9286C32.9572 34.3214 32.9855 34.3157 33.0119 34.3046C33.0383 34.2935 33.0621 34.2773 33.0821 34.2568C33.1021 34.2363 33.1177 34.2121 33.1282 34.1854C33.1386 34.1588 33.1436 34.1304 33.1429 34.1018C33.1161 32.8214 32.851 31.5759 32.3527 30.4ZM23.0715 24.25C21.842 24.25 20.6849 23.7705 19.8144 22.9C18.9438 22.0295 18.4644 20.8723 18.4644 19.6429C18.4644 18.4134 18.9438 17.2563 19.8144 16.3857C20.6849 15.5152 21.842 15.0357 23.0715 15.0357C24.301 15.0357 25.4581 15.5152 26.3286 16.3857C27.1992 17.2563 27.6786 18.4134 27.6786 19.6429C27.6786 20.8723 27.1992 22.0295 26.3286 22.9C25.4581 23.7705 24.301 24.25 23.0715 24.25Z"/>
</mask>
<path d="M32.3527 30.4C31.8475 29.2031 31.1142 28.116 30.1938 27.1991C29.2762 26.2796 28.1893 25.5464 26.9929 25.0402C26.9822 25.0348 26.9715 25.0321 26.9608 25.0268C28.6295 23.8214 29.7144 21.858 29.7144 19.6429C29.7144 15.9732 26.7411 13 23.0715 13C19.4019 13 16.4286 15.9732 16.4286 19.6429C16.4286 21.858 17.5135 23.8214 19.1822 25.0295C19.1715 25.0348 19.1608 25.0375 19.1501 25.0429C17.9501 25.5491 16.8733 26.275 15.9492 27.2018C15.0296 28.1194 14.2965 29.2064 13.7902 30.4027C13.2929 31.5739 13.0247 32.8296 13.0001 34.1018C12.9994 34.1304 13.0044 34.1588 13.0148 34.1854C13.0253 34.2121 13.0409 34.2363 13.0609 34.2568C13.0809 34.2773 13.1047 34.2935 13.1311 34.3046C13.1574 34.3157 13.1858 34.3214 13.2144 34.3214H14.8215C14.9394 34.3214 15.0331 34.2277 15.0358 34.1125C15.0894 32.0446 15.9197 30.108 17.3876 28.6402C18.9063 27.1214 20.9233 26.2857 23.0715 26.2857C25.2197 26.2857 27.2367 27.1214 28.7554 28.6402C30.2233 30.108 31.0536 32.0446 31.1072 34.1125C31.1099 34.2304 31.2036 34.3214 31.3215 34.3214H32.9286C32.9572 34.3214 32.9855 34.3157 33.0119 34.3046C33.0383 34.2935 33.0621 34.2773 33.0821 34.2568C33.1021 34.2363 33.1177 34.2121 33.1282 34.1854C33.1386 34.1588 33.1436 34.1304 33.1429 34.1018C33.1161 32.8214 32.851 31.5759 32.3527 30.4ZM23.0715 24.25C21.842 24.25 20.6849 23.7705 19.8144 22.9C18.9438 22.0295 18.4644 20.8723 18.4644 19.6429C18.4644 18.4134 18.9438 17.2563 19.8144 16.3857C20.6849 15.5152 21.842 15.0357 23.0715 15.0357C24.301 15.0357 25.4581 15.5152 26.3286 16.3857C27.1992 17.2563 27.6786 18.4134 27.6786 19.6429C27.6786 20.8723 27.1992 22.0295 26.3286 22.9C25.4581 23.7705 24.301 24.25 23.0715 24.25Z" fill="black" fill-opacity="0.25"/>
<path d="M30.1938 27.1991L29.486 27.9055L29.4881 27.9076L30.1938 27.1991ZM26.9929 25.0402L26.5457 25.9346L26.574 25.9488L26.6032 25.9611L26.9929 25.0402ZM26.9608 25.0268L26.3752 24.2161L25.0369 25.1829L26.5136 25.9212L26.9608 25.0268ZM19.1822 25.0295L19.6294 25.9239L21.1044 25.1864L19.7686 24.2194L19.1822 25.0295ZM19.1501 25.0429L19.5388 25.9642L19.5685 25.9517L19.5973 25.9373L19.1501 25.0429ZM15.9492 27.2018L16.6555 27.9096L16.6573 27.9079L15.9492 27.2018ZM13.7902 30.4027L14.7107 30.7935L14.7112 30.7924L13.7902 30.4027ZM13.0001 34.1018L13.9998 34.1268L13.9999 34.1211L13.0001 34.1018ZM13.2144 34.3214V33.3214H13.214L13.2144 34.3214ZM15.0358 34.1125L14.0361 34.0866L14.0361 34.0893L15.0358 34.1125ZM31.1072 34.1125L32.107 34.0898L32.1069 34.0866L31.1072 34.1125ZM32.9286 34.3214L32.929 33.3214H32.9286V34.3214ZM33.1429 34.1018L32.1431 34.1227L32.1432 34.1268L33.1429 34.1018ZM32.3527 30.4L31.4315 30.7889L31.432 30.7901L32.3527 30.4ZM33.274 30.0111C32.7183 28.6947 31.9118 27.4991 30.8996 26.4907L29.4881 27.9076C30.3166 28.7329 30.9766 29.7115 31.4315 30.7889L33.274 30.0111ZM30.9017 26.4927C29.8929 25.4818 28.6979 24.6758 27.3826 24.1192L26.6032 25.9611C27.6806 26.4171 28.6596 27.0773 29.486 27.9055L30.9017 26.4927ZM27.4401 24.1458C27.4078 24.1296 27.3802 24.1178 27.3613 24.1101C27.3518 24.1063 27.3438 24.1032 27.3384 24.1011C27.3333 24.0992 27.3288 24.0975 27.328 24.0972C27.3261 24.0965 27.328 24.0971 27.3303 24.0981C27.3331 24.0991 27.3384 24.1012 27.3452 24.1039C27.3588 24.1094 27.3811 24.1189 27.408 24.1324L26.5136 25.9212C26.5459 25.9374 26.5735 25.9491 26.5924 25.9569C26.6019 25.9607 26.6099 25.9638 26.6153 25.9659C26.6204 25.9678 26.6249 25.9695 26.6257 25.9698C26.6276 25.9705 26.6257 25.9698 26.6234 25.9689C26.6206 25.9679 26.6153 25.9658 26.6085 25.963C26.5949 25.9575 26.5726 25.9481 26.5457 25.9346L27.4401 24.1458ZM27.5463 25.8374C29.4646 24.4518 30.7144 22.1922 30.7144 19.6429H28.7144C28.7144 21.5239 27.7945 23.191 26.3752 24.2161L27.5463 25.8374ZM30.7144 19.6429C30.7144 15.4209 27.2934 12 23.0715 12V14C26.1889 14 28.7144 16.5255 28.7144 19.6429H30.7144ZM23.0715 12C18.8496 12 15.4286 15.4209 15.4286 19.6429H17.4286C17.4286 16.5255 19.9541 14 23.0715 14V12ZM15.4286 19.6429C15.4286 22.1924 16.6785 24.4515 18.5958 25.8395L19.7686 24.2194C18.3484 23.1913 17.4286 21.5237 17.4286 19.6429H15.4286ZM18.735 24.135C18.7619 24.1216 18.7842 24.1121 18.7978 24.1066C18.8046 24.1038 18.8099 24.1018 18.8126 24.1007C18.815 24.0998 18.8169 24.0991 18.815 24.0998C18.8142 24.1001 18.8097 24.1018 18.8046 24.1038C18.7992 24.1059 18.7912 24.1089 18.7817 24.1128C18.7628 24.1205 18.7351 24.1323 18.7029 24.1484L19.5973 25.9373C19.5704 25.9508 19.5481 25.9602 19.5345 25.9657C19.5277 25.9685 19.5224 25.9705 19.5196 25.9716C19.5173 25.9725 19.5154 25.9732 19.5173 25.9725C19.5181 25.9722 19.5226 25.9705 19.5277 25.9686C19.5331 25.9665 19.5411 25.9634 19.5506 25.9595C19.5695 25.9518 19.5971 25.94 19.6294 25.9239L18.735 24.135ZM18.7614 24.1215C17.4416 24.6783 16.2564 25.4774 15.241 26.4957L16.6573 27.9079C17.4902 27.0726 18.4586 26.4199 19.5388 25.9642L18.7614 24.1215ZM15.2428 26.4939C14.2319 27.5027 13.4259 28.6977 12.8693 30.013L14.7112 30.7924C15.1671 29.715 15.8274 28.736 16.6555 27.9096L15.2428 26.4939ZM12.8698 30.0118C12.3225 31.3007 12.0273 32.6825 12.0003 34.0825L13.9999 34.1211C14.022 32.9767 14.2633 31.8471 14.7107 30.7935L12.8698 30.0118ZM12.0004 34.0768C11.9963 34.2388 12.0247 34.4 12.084 34.5508L13.9457 33.8201C13.984 33.9177 14.0024 34.022 13.9998 34.1268L12.0004 34.0768ZM12.084 34.5508C12.1432 34.7016 12.232 34.8391 12.3451 34.9551L13.7767 33.5585C13.8499 33.6335 13.9074 33.7225 13.9457 33.8201L12.084 34.5508ZM12.3451 34.9551C12.4583 35.0711 12.5935 35.1633 12.7429 35.2262L13.5193 33.3831C13.616 33.4238 13.7035 33.4834 13.7767 33.5585L12.3451 34.9551ZM12.7429 35.2262C12.8922 35.2891 13.0526 35.3215 13.2147 35.3214L13.214 33.3214C13.3189 33.3214 13.4227 33.3424 13.5193 33.3831L12.7429 35.2262ZM13.2144 35.3214H14.8215V33.3214H13.2144V35.3214ZM14.8215 35.3214C15.4879 35.3214 16.0203 34.7887 16.0355 34.1358L14.0361 34.0893C14.0459 33.6667 14.3908 33.3214 14.8215 33.3214V35.3214ZM16.0354 34.1384C16.0824 32.3267 16.808 30.634 18.0947 29.3473L16.6805 27.9331C15.0314 29.5821 14.0963 31.7625 14.0361 34.0866L16.0354 34.1384ZM18.0947 29.3473C19.4259 28.016 21.1886 27.2857 23.0715 27.2857V25.2857C20.658 25.2857 18.3867 26.2268 16.6805 27.9331L18.0947 29.3473ZM23.0715 27.2857C24.9544 27.2857 26.7171 28.016 28.0483 29.3473L29.4625 27.9331C27.7563 26.2268 25.485 25.2857 23.0715 25.2857V27.2857ZM28.0483 29.3473C29.335 30.634 30.0606 32.3267 30.1075 34.1384L32.1069 34.0866C32.0467 31.7625 31.1116 29.5821 29.4625 27.9331L28.0483 29.3473ZM30.1075 34.1352C30.1226 34.7998 30.6637 35.3214 31.3215 35.3214V33.3214C31.7436 33.3214 32.0972 33.6609 32.107 34.0898L30.1075 34.1352ZM31.3215 35.3214H32.9286V33.3214H31.3215V35.3214ZM32.9283 35.3214C33.0904 35.3215 33.2508 35.2891 33.4001 35.2262L32.6237 33.3831C32.7203 33.3424 32.8241 33.3214 32.929 33.3214L32.9283 35.3214ZM33.4001 35.2262C33.5495 35.1633 33.6847 35.0711 33.7979 34.9551L32.3663 33.5585C32.4395 33.4834 32.527 33.4238 32.6237 33.3831L33.4001 35.2262ZM33.7979 34.9551C33.911 34.8391 33.9998 34.7016 34.059 34.5508L32.1973 33.8201C32.2356 33.7225 32.2931 33.6335 32.3663 33.5585L33.7979 34.9551ZM34.059 34.5508C34.1182 34.4 34.1467 34.2388 34.1426 34.0768L32.1432 34.1268C32.1406 34.022 32.159 33.9177 32.1973 33.8201L34.059 34.5508ZM34.1427 34.0809C34.1133 32.6745 33.8216 31.3035 33.2735 30.0099L31.432 30.7901C31.8803 31.8482 32.119 32.9684 32.1431 34.1227L34.1427 34.0809ZM23.0715 23.25C22.1075 23.25 21.2047 22.8761 20.5215 22.1929L19.1072 23.6071C20.1651 24.665 21.5765 25.25 23.0715 25.25V23.25ZM20.5215 22.1929C19.8383 21.5097 19.4644 20.6068 19.4644 19.6429H17.4644C17.4644 21.1378 18.0494 22.5492 19.1072 23.6071L20.5215 22.1929ZM19.4644 19.6429C19.4644 18.6789 19.8383 17.776 20.5215 17.0928L19.1072 15.6786C18.0494 16.7365 17.4644 18.1479 17.4644 19.6429H19.4644ZM20.5215 17.0928C21.2047 16.4096 22.1075 16.0357 23.0715 16.0357V14.0357C21.5765 14.0357 20.1651 14.6207 19.1072 15.6786L20.5215 17.0928ZM23.0715 16.0357C24.0355 16.0357 24.9383 16.4096 25.6215 17.0928L27.0357 15.6786C25.9779 14.6207 24.5665 14.0357 23.0715 14.0357V16.0357ZM25.6215 17.0928C26.3047 17.776 26.6786 18.6789 26.6786 19.6429H28.6786C28.6786 18.1479 28.0936 16.7365 27.0357 15.6786L25.6215 17.0928ZM26.6786 19.6429C26.6786 20.6068 26.3047 21.5097 25.6215 22.1929L27.0357 23.6071C28.0936 22.5492 28.6786 21.1378 28.6786 19.6429H26.6786ZM25.6215 22.1929C24.9383 22.8761 24.0355 23.25 23.0715 23.25V25.25C24.5665 25.25 25.9779 24.665 27.0357 23.6071L25.6215 22.1929Z" fill="black" mask="url(#path-2-inside-1_1_3991)"/>
</svg>
