<svg width="36" height="36" viewBox="0 0 36 36" fill="none" xmlns="http://www.w3.org/2000/svg">
<path d="M15.1999 24.6551L23.2115 18.3592C23.265 18.3166 23.3083 18.2626 23.338 18.201C23.3678 18.1394 23.3832 18.072 23.3832 18.0036C23.3832 17.9352 23.3678 17.8677 23.338 17.8061C23.3083 17.7446 23.265 17.6905 23.2115 17.648L15.1999 11.348C14.9026 11.115 14.4646 11.3239 14.4646 11.7016V24.2976C14.4646 24.6752 14.9026 24.8882 15.1999 24.6551Z" fill="#E85B81"/>
<path d="M32.7863 1.93359H3.21491C2.50375 1.93359 1.9292 2.50815 1.9292 3.21931V32.7907C1.9292 33.5019 2.50375 34.0765 3.21491 34.0765H32.7863C33.4975 34.0765 34.0721 33.5019 34.0721 32.7907V3.21931C34.0721 2.50815 33.4975 1.93359 32.7863 1.93359ZM31.1792 31.1836H4.82206V4.82645H31.1792V31.1836Z" fill="#E85B81"/>
</svg>
