<svg width="20" height="20" viewBox="0 0 20 20" fill="none" xmlns="http://www.w3.org/2000/svg">
<g clip-path="url(#clip0_1_4011)">
<path d="M5 7.96875C5 8.25291 5.11288 8.52543 5.31381 8.72637C5.51475 8.9273 5.78727 9.04018 6.07143 9.04018C6.35559 9.04018 6.62811 8.9273 6.82904 8.72637C7.02997 8.52543 7.14286 8.25291 7.14286 7.96875C7.14286 7.68459 7.02997 7.41207 6.82904 7.21114C6.62811 7.0102 6.35559 6.89732 6.07143 6.89732C5.78727 6.89732 5.51475 7.0102 5.31381 7.21114C5.11288 7.41207 5 7.68459 5 7.96875ZM12.8571 7.96875C12.8571 8.25291 12.97 8.52543 13.171 8.72637C13.3719 8.9273 13.6444 9.04018 13.9286 9.04018C14.2127 9.04018 14.4853 8.9273 14.6862 8.72637C14.8871 8.52543 15 8.25291 15 7.96875C15 7.68459 14.8871 7.41207 14.6862 7.21114C14.4853 7.0102 14.2127 6.89732 13.9286 6.89732C13.6444 6.89732 13.3719 7.0102 13.171 7.21114C12.97 7.41207 12.8571 7.68459 12.8571 7.96875ZM10 0C4.47768 0 0 4.47768 0 10C0 15.5223 4.47768 20 10 20C15.5223 20 20 15.5223 20 10C20 4.47768 15.5223 0 10 0ZM15.8705 15.8705C15.1071 16.6339 14.2188 17.2321 13.2299 17.6518C12.2098 18.0848 11.1228 18.3036 10 18.3036C8.87723 18.3036 7.79018 18.0848 6.76786 17.6518C5.78052 17.2348 4.88367 16.6298 4.12723 15.8705C3.36384 15.1071 2.76563 14.2188 2.34598 13.2299C1.91518 12.2098 1.69643 11.1228 1.69643 10C1.69643 8.87723 1.91518 7.79018 2.34821 6.76786C2.7652 5.78052 3.37017 4.88367 4.12946 4.12723C4.89286 3.36384 5.78125 2.76563 6.77009 2.34598C7.79018 1.91518 8.87723 1.69643 10 1.69643C11.1228 1.69643 12.2098 1.91518 13.2321 2.34821C14.2195 2.7652 15.1163 3.37017 15.8728 4.12946C16.6362 4.89286 17.2344 5.78125 17.654 6.77009C18.0848 7.79018 18.3036 8.87723 18.3036 10C18.3036 11.1228 18.0848 12.2098 17.6518 13.2321C17.2353 14.2191 16.6303 15.1153 15.8705 15.8705ZM10 10.4688C8.09152 10.4688 6.52679 11.971 6.42857 13.8527C6.42736 13.8769 6.43108 13.9011 6.43951 13.9238C6.44794 13.9465 6.46091 13.9672 6.47761 13.9848C6.49431 14.0023 6.51441 14.0163 6.53668 14.0258C6.55895 14.0353 6.58292 14.0402 6.60714 14.0402H7.6808C7.77455 14.0402 7.85491 13.9688 7.86161 13.875C7.94643 12.7701 8.87277 11.8973 10 11.8973C11.1272 11.8973 12.0558 12.7701 12.1384 13.875C12.1451 13.9688 12.2254 14.0402 12.3192 14.0402H13.3929C13.4171 14.0402 13.4411 14.0353 13.4633 14.0258C13.4856 14.0163 13.5057 14.0023 13.5224 13.9848C13.5391 13.9672 13.5521 13.9465 13.5605 13.9238C13.5689 13.9011 13.5726 13.8769 13.5714 13.8527C13.4732 11.971 11.9085 10.4688 10 10.4688Z" fill="black" fill-opacity="0.85"/>
</g>
<defs>
<clipPath id="clip0_1_4011">
<rect width="20" height="20" fill="white"/>
</clipPath>
</defs>
</svg>
