<svg width="20" height="21" viewBox="0 0 20 21" fill="none" xmlns="http://www.w3.org/2000/svg">
<path d="M15 7.16675C16.3807 7.16675 17.5 6.04746 17.5 4.66675C17.5 3.28604 16.3807 2.16675 15 2.16675C13.6193 2.16675 12.5 3.28604 12.5 4.66675C12.5 6.04746 13.6193 7.16675 15 7.16675Z" stroke="#252525" stroke-width="2" stroke-linecap="round" stroke-linejoin="round"/>
<path d="M5 13C6.38071 13 7.5 11.8807 7.5 10.5C7.5 9.11929 6.38071 8 5 8C3.61929 8 2.5 9.11929 2.5 10.5C2.5 11.8807 3.61929 13 5 13Z" stroke="#252525" stroke-width="2" stroke-linecap="round" stroke-linejoin="round"/>
<path d="M15 18.8333C16.3807 18.8333 17.5 17.714 17.5 16.3333C17.5 14.9525 16.3807 13.8333 15 13.8333C13.6193 13.8333 12.5 14.9525 12.5 16.3333C12.5 17.714 13.6193 18.8333 15 18.8333Z" stroke="#252525" stroke-width="2" stroke-linecap="round" stroke-linejoin="round"/>
<path d="M7.1582 11.7583L12.8499 15.075" stroke="#252525" stroke-width="2" stroke-linecap="round" stroke-linejoin="round"/>
<path d="M12.8415 5.92505L7.1582 9.24172" stroke="#252525" stroke-width="2" stroke-linecap="round" stroke-linejoin="round"/>
</svg>
