<svg width="20" height="20" viewBox="0 0 20 20" fill="none" xmlns="http://www.w3.org/2000/svg">
<g clip-path="url(#clip0_1_4013)">
<path d="M5 7.96875C5 8.25291 5.11288 8.52543 5.31381 8.72637C5.51475 8.9273 5.78727 9.04018 6.07143 9.04018C6.35559 9.04018 6.62811 8.9273 6.82904 8.72637C7.02997 8.52543 7.14286 8.25291 7.14286 7.96875C7.14286 7.68459 7.02997 7.41207 6.82904 7.21114C6.62811 7.0102 6.35559 6.89732 6.07143 6.89732C5.78727 6.89732 5.51475 7.0102 5.31381 7.21114C5.11288 7.41207 5 7.68459 5 7.96875ZM12.8571 7.96875C12.8571 8.25291 12.97 8.52543 13.171 8.72637C13.3719 8.9273 13.6444 9.04018 13.9286 9.04018C14.2127 9.04018 14.4853 8.9273 14.6862 8.72637C14.8871 8.52543 15 8.25291 15 7.96875C15 7.68459 14.8871 7.41207 14.6862 7.21114C14.4853 7.0102 14.2127 6.89732 13.9286 6.89732C13.6444 6.89732 13.3719 7.0102 13.171 7.21114C12.97 7.41207 12.8571 7.68459 12.8571 7.96875ZM10 0C4.47768 0 0 4.47768 0 10C0 15.5223 4.47768 20 10 20C15.5223 20 20 15.5223 20 10C20 4.47768 15.5223 0 10 0ZM15.8705 15.8705C15.1071 16.6339 14.2188 17.2321 13.2299 17.6518C12.2098 18.0848 11.1228 18.3036 10 18.3036C8.87723 18.3036 7.79018 18.0848 6.76786 17.6518C5.78052 17.2348 4.88367 16.6298 4.12723 15.8705C3.36384 15.1071 2.76563 14.2188 2.34598 13.2299C1.91518 12.2098 1.69643 11.1228 1.69643 10C1.69643 8.87723 1.91518 7.79018 2.34821 6.76786C2.7652 5.78052 3.37017 4.88367 4.12946 4.12723C4.89286 3.36384 5.78125 2.76563 6.77009 2.34598C7.79018 1.91518 8.87723 1.69643 10 1.69643C11.1228 1.69643 12.2098 1.91518 13.2321 2.34821C14.2195 2.7652 15.1163 3.37017 15.8728 4.12946C16.6362 4.89286 17.2344 5.78125 17.654 6.77009C18.0848 7.79018 18.3036 8.87723 18.3036 10C18.3036 11.1228 18.0848 12.2098 17.6518 13.2321C17.2353 14.2191 16.6303 15.1153 15.8705 15.8705ZM13.3929 10.4688H12.3192C12.2254 10.4688 12.1451 10.5402 12.1384 10.6339C12.0536 11.7388 11.1272 12.6116 10 12.6116C8.87277 12.6116 7.9442 11.7388 7.86161 10.6339C7.85491 10.5402 7.77455 10.4688 7.6808 10.4688H6.60714C6.58292 10.4687 6.55895 10.4736 6.53668 10.4831C6.51441 10.4927 6.49431 10.5066 6.47761 10.5242C6.46091 10.5417 6.44794 10.5625 6.43951 10.5852C6.43108 10.6079 6.42736 10.6321 6.42857 10.6563C6.52679 12.5379 8.09152 14.0402 10 14.0402C11.9085 14.0402 13.4732 12.5379 13.5714 10.6563C13.5726 10.6321 13.5689 10.6079 13.5605 10.5852C13.5521 10.5625 13.5391 10.5417 13.5224 10.5242C13.5057 10.5066 13.4856 10.4927 13.4633 10.4831C13.4411 10.4736 13.4171 10.4687 13.3929 10.4688Z" fill="black" fill-opacity="0.85"/>
</g>
<defs>
<clipPath id="clip0_1_4013">
<rect width="20" height="20" fill="white"/>
</clipPath>
</defs>
</svg>
